<?xml version="1.0" standalone="no"?>
<!DOCTYPE svg PUBLIC "-//W3C//DTD SVG 20010904//EN"
 "http://www.w3.org/TR/2001/REC-SVG-20010904/DTD/svg10.dtd">
<svg version="1.0" xmlns="http://www.w3.org/2000/svg"
 width="221.000000pt" height="221.000000pt" viewBox="0 0 221.000000 221.000000"
 preserveAspectRatio="xMidYMid meet">
<metadata>
Created by potrace 1.11, written by Peter Selinger 2001-2013
</metadata>
<g transform="translate(0.000000,221.000000) scale(0.100000,-0.100000)"
fill="#000000" stroke="none">
<path d="M1413 1911 c-50 -27 -256 -145 -283 -161 -14 -9 -265 -154 -675 -390
-179 -103 -331 -191 -371 -216 -12 -7 -30 -32 -42 -56 -61 -128 40 -383 192
-487 108 -75 501 -291 528 -291 19 0 167 80 456 247 235 135 436 251 447 257
11 6 27 16 35 22 8 6 40 25 70 41 56 31 328 188 367 213 48 31 51 109 7 196
-26 51 -104 134 -125 134 -23 0 -4 18 50 48 70 38 78 48 77 87 -1 26 -10 35
-71 73 -38 23 -76 46 -84 49 -7 3 -105 59 -217 124 -112 64 -214 121 -226 125
-49 16 -88 11 -135 -15z m158 -71 c79 -41 499 -286 499 -292 0 -4 -11 -13 -25
-20 -34 -18 -260 -148 -501 -288 -110 -65 -220 -129 -245 -142 -24 -14 -142
-82 -262 -152 -120 -69 -221 -126 -224 -126 -7 0 -584 333 -581 335 3 2 418
242 748 432 91 53 182 106 202 119 21 13 40 24 42 24 2 0 40 21 83 46 43 26
96 55 118 65 44 20 106 20 146 -1z m430 -486 c70 -42 100 -81 107 -139 4 -39
1 -46 -29 -74 -26 -24 -538 -326 -876 -517 -23 -13 -108 -63 -189 -110 -82
-47 -152 -86 -158 -87 -5 -1 -14 14 -20 33 -34 108 -81 152 -287 270 -90 51
-177 101 -192 110 l-28 17 70 42 70 41 123 -71 c68 -39 146 -84 173 -99 l50
-28 380 220 c209 121 461 267 560 324 98 57 181 104 183 104 3 0 31 -16 63
-36z m-1670 -335 l72 -41 -54 -34 c-30 -18 -61 -37 -69 -42 -8 -5 -15 -25 -16
-45 l-2 -36 212 -122 c263 -153 264 -153 287 -203 20 -45 23 -64 11 -84 -19
-29 -53 -19 -164 45 -62 36 -169 97 -238 136 -69 39 -145 92 -170 117 -126
126 -148 338 -38 368 39 11 66 1 169 -59z"/>
<path d="M1198 1601 c-153 -86 -278 -159 -278 -162 0 -3 15 -14 33 -24 l33
-17 140 77 c173 97 418 236 422 240 3 2 -67 46 -71 44 -1 -1 -127 -71 -279
-158z"/>
<path d="M1342 1516 c-150 -84 -273 -158 -272 -162 1 -5 14 -17 28 -26 30 -18
4 -31 327 151 72 41 155 87 185 104 84 46 85 47 53 68 -15 11 -32 19 -38 19
-5 0 -133 -69 -283 -154z"/>
<path d="M1640 1518 c-69 -39 -154 -86 -190 -106 -36 -20 -87 -48 -113 -64
-26 -15 -50 -28 -53 -28 -2 0 -22 -12 -44 -26 l-40 -27 32 -20 32 -19 51 26
c27 14 70 37 95 52 25 14 106 59 180 101 184 103 240 136 240 143 0 4 -15 13
-33 22 l-33 16 -124 -70z"/>
<path d="M818 1386 c-57 -31 -305 -170 -321 -182 -17 -11 1 -24 158 -118 l178
-106 31 19 c17 10 97 56 179 101 81 46 147 86 147 89 -1 3 -79 52 -175 107
-158 92 -176 101 -197 90z"/>
<path d="M1398 956 c-296 -171 -538 -313 -538 -316 0 -3 11 -18 24 -34 l23
-30 499 289 c274 158 515 297 534 308 58 32 65 59 23 80 -27 14 -41 7 -565
-297z"/>
</g>
</svg>
